<svg xmlns="http://www.w3.org/2000/svg" xmlns:xlink="http://www.w3.org/1999/xlink" width="17" height="16" viewBox="0 0 17 16"><defs><path id="w8dla" d="M980 1554a.54.54 0 0 1-.4-.17l-6.4-6.92c-.77-.87-1.2-2.01-1.2-3.22 0-1.22.43-2.36 1.2-3.22l.1-.1a3.97 3.97 0 0 1 2.97-1.37c1.13 0 2.18.48 2.97 1.36l.76.84.76-.84a3.97 3.97 0 0 1 2.97-1.36c1.12 0 2.18.48 2.97 1.36l.1.1c.77.87 1.2 2.01 1.2 3.23a4.79 4.79 0 0 1-1.2 3.22l-6.4 6.92a.54.54 0 0 1-.4.17zm-6-7.83l6 6.49 6-6.49a3.8 3.8 0 0 0 0-4.97l-.1-.11a2.9 2.9 0 0 0-2.17-1 2.9 2.9 0 0 0-2.17 1l-1.16 1.29a.54.54 0 0 1-.8 0l-1.16-1.3a2.9 2.9 0 0 0-2.17-1 2.9 2.9 0 0 0-2.17 1l-.1.12a3.8 3.8 0 0 0 0 4.97z"/></defs><g><g transform="translate(-971 -1539)"><use fill="#fff" xlink:href="#w8dla"/><use fill="#fff" fill-opacity="0" stroke="#fff" stroke-linecap="round" stroke-linejoin="round" stroke-miterlimit="50" xlink:href="#w8dla"/></g></g></svg>