<svg xmlns="http://www.w3.org/2000/svg" xmlns:xlink="http://www.w3.org/1999/xlink" width="22" height="12" viewBox="0 0 22 12"><defs><path id="oedwa" d="M924.7 1547.18a.94.94 0 0 0-1.36 0l-1.35 1.4V1541c0-.55-.44-1-.97-1h-9.44a.98.98 0 0 0-.96 1c0 .55.43 1 .96 1h8.48v6.58l-1.36-1.4a.94.94 0 0 0-1.36 0c-.38.39-.38 1.02 0 1.41l3 3.12a.95.95 0 0 0 1.36 0l3-3.12c.38-.39.38-1.02 0-1.41zm-8.3 2.82h-8.47v-6.58l1.35 1.4a.94.94 0 0 0 1.36 0c.38-.39.38-1.02 0-1.41l-3-3.12a.95.95 0 0 0-1.36 0l-3 3.12c-.38.39-.38 1.02 0 1.41.38.4.99.4 1.37 0l1.35-1.4v7.58c0 .55.43 1 .96 1h9.44c.53 0 .97-.45.97-1s-.44-1-.97-1z"/></defs><g><g transform="translate(-903 -1540)"><use fill="#fff" xlink:href="#oedwa"/></g></g></svg>